<svg width="36" height="36" viewBox="0 0 36 36" fill="none" xmlns="http://www.w3.org/2000/svg">
<path d="M17.7773 35.957C27.4277 35.957 35.4082 27.9766 35.4082 18.3262C35.4082 8.67578 27.4277 0.695312 17.7598 0.695312C8.10938 0.695312 0.146484 8.67578 0.146484 18.3262C0.146484 27.9766 8.12695 35.957 17.7773 35.957ZM17.7773 33.6895C9.26953 33.6895 2.43164 26.834 2.43164 18.3262C2.43164 9.81836 9.26953 2.98047 17.7598 2.98047C26.2676 2.98047 33.123 9.81836 33.1406 18.3262C33.1406 26.834 26.2852 33.6895 17.7773 33.6895ZM26.8477 18.3086C26.8477 18.0273 26.7246 17.7988 26.4609 17.5352L20.2031 11.2598C20.0273 11.0664 19.7812 10.9609 19.4824 10.9609C18.9199 10.9609 18.5156 11.4004 18.5156 11.9453C18.5156 12.2441 18.6387 12.4902 18.832 12.6836L21.5918 15.4258L23.7539 17.3945L20.5195 17.2715H9.76172C9.16406 17.2715 8.74219 17.6934 8.74219 18.3086C8.74219 18.9062 9.16406 19.3281 9.76172 19.3281H20.5195L23.7539 19.2227L21.5918 21.1914L18.832 23.9336C18.6211 24.127 18.5156 24.3555 18.5156 24.6719C18.5156 25.2168 18.9199 25.6562 19.4824 25.6562C19.7812 25.6562 20.0273 25.5332 20.2031 25.3574L26.4609 19.0996C26.707 18.8535 26.8477 18.6074 26.8477 18.3086Z" fill="white" fill-opacity="0.6"/>
</svg>
