<svg width="21" height="18" viewBox="0 0 21 18" fill="none" xmlns="http://www.w3.org/2000/svg">
<path d="M7.27429 13.6465H17.5311C17.8739 13.6465 18.1727 13.3652 18.1727 12.9873C18.1727 12.6094 17.8739 12.3281 17.5311 12.3281H7.42371C6.92273 12.3281 6.61511 11.9766 6.53601 11.4404L6.39539 10.5176H17.5487C18.8319 10.5176 19.4911 9.72656 19.6757 8.46973L20.3788 3.82031C20.3964 3.70605 20.4139 3.56543 20.4139 3.48633C20.4139 3.06445 20.0975 2.77441 19.6141 2.77441H5.2616L5.0946 1.6582C5.00671 0.981445 4.76062 0.638672 3.86414 0.638672H0.779175C0.427612 0.638672 0.128784 0.946289 0.128784 1.29785C0.128784 1.6582 0.427612 1.96582 0.779175 1.96582H3.74988L5.15613 11.6162C5.3407 12.8643 5.99988 13.6465 7.27429 13.6465ZM18.9198 4.10156L18.2958 8.31152C18.2255 8.85645 17.9354 9.19043 17.4169 9.19043L6.20203 9.19922L5.45496 4.10156H18.9198ZM7.96863 17.918C8.75964 17.918 9.39246 17.2939 9.39246 16.4941C9.39246 15.7031 8.75964 15.0703 7.96863 15.0703C7.16882 15.0703 6.53601 15.7031 6.53601 16.4941C6.53601 17.2939 7.16882 17.918 7.96863 17.918ZM16.1864 17.918C16.9862 17.918 17.619 17.2939 17.619 16.4941C17.619 15.7031 16.9862 15.0703 16.1864 15.0703C15.3954 15.0703 14.7538 15.7031 14.7538 16.4941C14.7538 17.2939 15.3954 17.918 16.1864 17.918Z" fill="white"/>
</svg>
