<svg width="14" height="22" viewBox="0 0 14 22" fill="none" xmlns="http://www.w3.org/2000/svg">
<path d="M12.495 12.3177L2.9015 20.7107C1.77275 21.7012 6.43485e-07 20.8962 6.43485e-07 19.393L6.43485e-07 2.60698C-0.000287804 2.27055 0.0964037 1.94117 0.278497 1.65828C0.46059 1.37539 0.720365 1.15099 1.02671 1.01194C1.33306 0.872894 1.673 0.825096 2.00581 0.874275C2.33862 0.923452 2.65021 1.06752 2.90325 1.28923L12.4932 9.68223C12.6812 9.84649 12.8319 10.0491 12.9351 10.2763C13.0383 10.5036 13.0917 10.7504 13.0917 11C13.0917 11.2496 13.0383 11.4963 12.9351 11.7236C12.8319 11.9509 12.6812 12.1535 12.4932 12.3177H12.495Z" fill="#535353"/>
</svg>
