<svg width="65" height="15" viewBox="0 0 65 15" fill="none" xmlns="http://www.w3.org/2000/svg">
<path d="M7.62891 8.625H5.57812V14.75H2.84375V8.625H0.628906V6.08203H2.84375V4.16797C2.84375 3.4388 2.98047 2.81901 3.25391 2.30859C3.52734 1.79818 3.91016 1.41536 4.40234 1.16016C4.91276 0.886719 5.49609 0.75 6.15234 0.75C6.44401 0.75 6.75391 0.768229 7.08203 0.804688C7.41016 0.822917 7.66536 0.85026 7.84766 0.886719L8.12109 0.914062V3.07422H7.02734C6.51693 3.07422 6.14323 3.21094 5.90625 3.48438C5.6875 3.73958 5.57812 4.05859 5.57812 4.44141V6.08203H8.01172L7.62891 8.625ZM26.6602 5.53516C27.2799 4.91536 28.0273 4.60547 28.9023 4.60547C29.7773 4.60547 30.5156 4.91536 31.1172 5.53516C31.737 6.13672 32.0469 6.875 32.0469 7.75C32.0469 8.625 31.737 9.3724 31.1172 9.99219C30.5156 10.5938 29.7773 10.8945 28.9023 10.8945C28.0273 10.8945 27.2799 10.5938 26.6602 9.99219C26.0586 9.3724 25.7578 8.625 25.7578 7.75C25.7578 6.875 26.0586 6.13672 26.6602 5.53516ZM27.4531 9.19922C27.8542 9.60026 28.3372 9.80078 28.9023 9.80078C29.4674 9.80078 29.9505 9.60026 30.3516 9.19922C30.7526 8.79818 30.9531 8.3151 30.9531 7.75C30.9531 7.1849 30.7526 6.70182 30.3516 6.30078C29.9505 5.89974 29.4674 5.69922 28.9023 5.69922C28.3372 5.69922 27.8542 5.89974 27.4531 6.30078C27.0521 6.70182 26.8516 7.1849 26.8516 7.75C26.8516 8.3151 27.0521 8.79818 27.4531 9.19922ZM32.6758 3.97656C32.8216 4.10417 32.8945 4.26823 32.8945 4.46875C32.8945 4.66927 32.8216 4.84245 32.6758 4.98828C32.5482 5.13411 32.3841 5.20703 32.1836 5.20703C31.9831 5.20703 31.8099 5.13411 31.6641 4.98828C31.5182 4.84245 31.4453 4.66927 31.4453 4.46875C31.4453 4.26823 31.5182 4.10417 31.6641 3.97656C31.8099 3.83073 31.9831 3.75781 32.1836 3.75781C32.3841 3.75781 32.5482 3.83073 32.6758 3.97656ZM35 5.23438C35.0182 5.72656 35.0273 6.5651 35.0273 7.75C35.0273 8.9349 35.0182 9.77344 35 10.2656C34.9453 11.3776 34.6081 12.2435 33.9883 12.8633C33.3867 13.4648 32.5299 13.7839 31.418 13.8203C30.9258 13.8568 30.0872 13.875 28.9023 13.875C27.7174 13.875 26.8789 13.8568 26.3867 13.8203C25.2747 13.7656 24.418 13.4375 23.8164 12.8359C23.5794 12.6172 23.388 12.362 23.2422 12.0703C23.0964 11.7786 22.987 11.4961 22.9141 11.2227C22.8594 10.9492 22.832 10.6302 22.832 10.2656C22.7956 9.77344 22.7773 8.9349 22.7773 7.75C22.7773 6.5651 22.7956 5.71745 22.832 5.20703C22.8867 4.11328 23.2148 3.26562 23.8164 2.66406C24.418 2.04427 25.2747 1.70703 26.3867 1.65234C26.8789 1.63411 27.7174 1.625 28.9023 1.625C30.0872 1.625 30.9258 1.63411 31.418 1.65234C32.5299 1.70703 33.3867 2.04427 33.9883 2.66406C34.6081 3.26562 34.9453 4.1224 35 5.23438ZM33.6875 11.3594C33.7422 11.2135 33.7878 11.0312 33.8242 10.8125C33.8607 10.5755 33.888 10.3021 33.9062 9.99219C33.9245 9.66406 33.9336 9.39974 33.9336 9.19922C33.9336 8.9987 33.9336 8.71615 33.9336 8.35156C33.9336 7.98698 33.9336 7.78646 33.9336 7.75C33.9336 7.69531 33.9336 7.49479 33.9336 7.14844C33.9336 6.78385 33.9336 6.5013 33.9336 6.30078C33.9336 6.10026 33.9245 5.84505 33.9062 5.53516C33.888 5.20703 33.8607 4.93359 33.8242 4.71484C33.7878 4.47786 33.7422 4.28646 33.6875 4.14062C33.4688 3.57552 33.0768 3.18359 32.5117 2.96484C32.3659 2.91016 32.1745 2.86458 31.9375 2.82812C31.7188 2.79167 31.4453 2.76432 31.1172 2.74609C30.8073 2.72786 30.5521 2.71875 30.3516 2.71875C30.1693 2.71875 29.8867 2.71875 29.5039 2.71875C29.1393 2.71875 28.9388 2.71875 28.9023 2.71875C28.8659 2.71875 28.6654 2.71875 28.3008 2.71875C27.9362 2.71875 27.6536 2.71875 27.4531 2.71875C27.2526 2.71875 26.9883 2.72786 26.6602 2.74609C26.3503 2.76432 26.0768 2.79167 25.8398 2.82812C25.6211 2.86458 25.4388 2.91016 25.293 2.96484C24.7279 3.18359 24.3359 3.57552 24.1172 4.14062C24.0625 4.28646 24.0169 4.47786 23.9805 4.71484C23.944 4.93359 23.9167 5.20703 23.8984 5.53516C23.8802 5.84505 23.8711 6.10026 23.8711 6.30078C23.8711 6.48307 23.8711 6.76562 23.8711 7.14844C23.8711 7.51302 23.8711 7.71354 23.8711 7.75C23.8711 7.82292 23.8711 7.99609 23.8711 8.26953C23.8711 8.52474 23.8711 8.74349 23.8711 8.92578C23.8711 9.08984 23.8711 9.30859 23.8711 9.58203C23.8893 9.85547 23.9076 10.0924 23.9258 10.293C23.944 10.4753 23.9714 10.6667 24.0078 10.8672C24.0443 11.0677 24.0807 11.2318 24.1172 11.3594C24.3542 11.9245 24.7461 12.3164 25.293 12.5352C25.4388 12.5898 25.6211 12.6354 25.8398 12.6719C26.0768 12.7083 26.3503 12.7357 26.6602 12.7539C26.9883 12.7721 27.2435 12.7812 27.4258 12.7812C27.6263 12.7812 27.9089 12.7812 28.2734 12.7812C28.6562 12.7812 28.8659 12.7812 28.9023 12.7812C28.957 12.7812 29.1576 12.7812 29.5039 12.7812C29.8685 12.7812 30.151 12.7812 30.3516 12.7812C30.5521 12.7812 30.8073 12.7721 31.1172 12.7539C31.4453 12.7357 31.7188 12.7083 31.9375 12.6719C32.1745 12.6354 32.3659 12.5898 32.5117 12.5352C33.0768 12.2982 33.4688 11.9062 33.6875 11.3594ZM64.0391 4.14062C64.0938 4.35938 64.1393 4.63281 64.1758 4.96094C64.2305 5.28906 64.2669 5.61719 64.2852 5.94531C64.3034 6.25521 64.3125 6.54688 64.3125 6.82031C64.3307 7.09375 64.3398 7.32161 64.3398 7.50391V7.75C64.3398 9.39062 64.2396 10.6029 64.0391 11.3867C63.9479 11.6966 63.7839 11.9701 63.5469 12.207C63.3099 12.444 63.0273 12.6081 62.6992 12.6992C62.3529 12.7904 61.6966 12.8633 60.7305 12.918C59.7643 12.9544 58.8802 12.9818 58.0781 13H56.875C53.7578 13 51.8164 12.8997 51.0508 12.6992C50.3398 12.4987 49.8932 12.0612 49.7109 11.3867C49.6198 11.0404 49.5469 10.5664 49.4922 9.96484C49.4557 9.34505 49.4284 8.82552 49.4102 8.40625V7.75C49.4102 6.1276 49.5104 4.92448 49.7109 4.14062C49.8021 3.8125 49.9661 3.52995 50.2031 3.29297C50.4401 3.05599 50.7227 2.89193 51.0508 2.80078C51.3971 2.70964 52.0534 2.64583 53.0195 2.60938C53.9857 2.55469 54.8698 2.51823 55.6719 2.5H56.875C59.9922 2.5 61.9336 2.60026 62.6992 2.80078C63.0273 2.89193 63.3099 3.05599 63.5469 3.29297C63.7839 3.52995 63.9479 3.8125 64.0391 4.14062ZM55.3438 9.99219L59.2539 7.75L55.3438 5.53516V9.99219Z" fill="white"/>
</svg>
