<svg width="18" height="19" viewBox="0 0 18 19" fill="none" xmlns="http://www.w3.org/2000/svg">
<path d="M8.99988 18.6191C13.9042 18.6191 17.9647 14.5586 17.9647 9.6543C17.9647 4.75879 13.8954 0.689453 8.99109 0.689453C4.09558 0.689453 0.0350342 4.75879 0.0350342 9.6543C0.0350342 14.5586 4.10437 18.6191 8.99988 18.6191ZM8.99988 17.125C4.85144 17.125 1.53796 13.8027 1.53796 9.6543C1.53796 5.51465 4.84265 2.18359 8.99109 2.18359C13.1395 2.18359 16.4618 5.51465 16.4706 9.6543C16.4794 13.8027 13.1483 17.125 8.99988 17.125ZM8.99988 9.16211C10.2743 9.1709 11.2938 8.08105 11.2938 6.64844C11.2938 5.3125 10.2743 4.19629 8.99988 4.19629C7.72546 4.19629 6.70593 5.3125 6.70593 6.64844C6.70593 8.08105 7.72546 9.15332 8.99988 9.16211ZM4.91296 14.1455H13.0868C13.4384 14.1455 13.6141 13.9082 13.6141 13.5918C13.6141 12.6074 12.1376 10.0674 8.99988 10.0674C5.86218 10.0674 4.38562 12.6074 4.38562 13.5918C4.38562 13.9082 4.5614 14.1455 4.91296 14.1455Z" fill="white"/>
</svg>
