<svg width="38" height="38" viewBox="0 0 38 38" fill="none" xmlns="http://www.w3.org/2000/svg">
<path d="M37.0176 15.6016H19.376V22.8525H29.4541C29.0195 25.1963 27.7012 27.1787 25.7139 28.5068C24.0342 29.6299 21.8906 30.2939 19.3711 30.2939C14.4932 30.2939 10.3672 26.998 8.89258 22.5693C8.52148 21.4463 8.30664 20.2451 8.30664 19.0098C8.30664 17.7744 8.52148 16.5732 8.89258 15.4502C10.3721 11.0264 14.498 7.73047 19.376 7.73047C22.125 7.73047 24.5908 8.67773 26.5342 10.5332L31.9053 5.15723C28.6582 2.12988 24.4248 0.274414 19.376 0.274414C12.0566 0.274414 5.72363 4.47363 2.64258 10.5967C1.37305 13.126 0.650391 15.9873 0.650391 19.0146C0.650391 22.042 1.37305 24.8984 2.64258 27.4277C5.72363 33.5508 12.0566 37.75 19.376 37.75C24.4346 37.75 28.6729 36.0703 31.7686 33.209C35.3086 29.9473 37.3545 25.1426 37.3545 19.4346C37.3545 18.1064 37.2373 16.832 37.0176 15.6016Z" fill="#EDEDED"/>
</svg>
