<svg width="45" height="36" viewBox="0 0 45 36" fill="none" xmlns="http://www.w3.org/2000/svg">
<path d="M44.3169 4.26431C43.0827 6.1 41.5687 7.66483 39.7746 8.95882C39.7924 9.30586 39.8012 9.6981 39.8012 10.1355C39.8012 12.5661 39.4468 14.9996 38.7381 17.436C38.0294 19.8725 36.9468 22.2046 35.4904 24.4324C34.0339 26.6601 32.2991 28.6338 30.2857 30.3532C28.2724 32.0727 25.8523 33.4437 23.0253 34.4662C20.1984 35.4888 17.1688 36 13.9363 36C8.89149 36 4.24572 34.6381 -0.00100708 31.9143C0.752737 31.9982 1.47564 32.0401 2.16771 32.0401C6.38223 32.0401 10.1465 30.742 13.4604 28.1457C11.4954 28.1097 9.73554 27.5048 8.18089 26.331C6.62625 25.1572 5.55637 23.6574 4.97128 21.8314C5.54961 21.9416 6.1204 21.9967 6.68365 21.9967C7.49442 21.9967 8.29221 21.8909 9.07701 21.6794C6.97993 21.2595 5.24023 20.215 3.85791 18.546C2.47563 16.8771 1.78448 14.9508 1.78448 12.7672V12.6546C3.07168 13.3674 4.44467 13.7465 5.90346 13.792C4.66117 12.9638 3.67623 11.8838 2.94862 10.552C2.22096 9.22021 1.85713 7.77899 1.85713 6.22832C1.85713 4.59289 2.26694 3.07 3.08657 1.65964C5.3671 4.4582 8.13043 6.69491 11.3766 8.36975C14.6228 10.0446 18.1053 10.9748 21.8242 11.1603C21.6656 10.4992 21.5861 9.8094 21.5859 9.09079C21.5859 6.58169 22.4738 4.43928 24.2496 2.66357C26.0255 0.887856 28.168 0 30.6771 0C33.3041 0 35.5168 0.956532 37.3152 2.8696C39.3701 2.46258 41.2941 1.72639 43.0872 0.661032C42.3964 2.83519 41.0652 4.51241 39.0936 5.69268C40.9057 5.47735 42.6467 5.00123 44.3168 4.26431H44.3169Z" fill="#EDEDED"/>
</svg>
