<svg id="ep96s6351gl1" xmlns="http://www.w3.org/2000/svg" xmlns:xlink="http://www.w3.org/1999/xlink" viewBox="0 0 672 683" shape-rendering="geometricPrecision" text-rendering="geometricPrecision"><style><![CDATA[#ep96s6351gl3_tr {animation: ep96s6351gl3_tr__tr 3000ms linear infinite normal forwards}@keyframes ep96s6351gl3_tr__tr { 0% {transform: translate(328.992076px,337.992315px) rotate(360deg);animation-timing-function: cubic-bezier(0.445000,0.050000,0.550000,0.950000)} 66.666667% {transform: translate(328.992076px,337.992315px) rotate(-360deg)} 100% {transform: translate(328.992076px,337.992315px) rotate(-360deg)} }#ep96s6351gl4_tr {animation: ep96s6351gl4_tr__tr 3000ms linear infinite normal forwards}@keyframes ep96s6351gl4_tr__tr { 0% {transform: translate(328.492000px,338.492000px) rotate(0deg);animation-timing-function: cubic-bezier(0.445000,0.050000,0.550000,0.950000)} 66.666667% {transform: translate(328.492000px,338.492000px) rotate(360deg)} 100% {transform: translate(328.492000px,338.492000px) rotate(360deg)} }#ep96s6351gl5_tr {animation: ep96s6351gl5_tr__tr 3000ms linear infinite normal forwards}@keyframes ep96s6351gl5_tr__tr { 0% {transform: translate(330.492135px,341.491830px) rotate(0deg)} 66.666667% {transform: translate(330.492135px,341.491830px) rotate(360deg)} 100% {transform: translate(330.492135px,341.491830px) rotate(360deg)} }]]></style><path id="ep96s6351gl2" d="M294.134000,368.167000L296.595000,368.167000C296.595000,366.928000,297.403000,366.058000,298.695000,366.058000C299.935000,366.058000,300.655000,366.884000,300.655000,367.921000C300.655000,368.800000,300.312000,369.380000,298.730000,370.918000L294.283000,375.216000L294.283000,377L303.433000,377L303.433000,374.864000L297.860000,374.864000L297.860000,374.706000L300.497000,372.192000C302.606000,370.188000,303.257000,369.169000,303.257000,367.684000C303.257000,365.548000,301.534000,363.992000,298.845000,363.992000C296.067000,363.992000,294.134000,365.697000,294.134000,368.167000ZM311.086000,371.437000L312.694000,371.437000C314.118000,371.437000,314.997000,372.157000,314.997000,373.317000C314.997000,374.434000,314.056000,375.189000,312.712000,375.189000C311.349000,375.189000,310.435000,374.495000,310.356000,373.396000L307.816000,373.396000C307.931000,375.770000,309.882000,377.325000,312.747000,377.325000C315.612000,377.325000,317.704000,375.752000,317.704000,373.537000C317.704000,371.832000,316.632000,370.707000,314.865000,370.443000L314.865000,370.285000C316.227000,369.942000,317.194000,368.940000,317.203000,367.402000C317.212000,365.548000,315.647000,363.992000,312.835000,363.992000C309.978000,363.992000,308.177000,365.565000,308.089000,367.877000L310.541000,367.877000C310.629000,366.708000,311.420000,366.040000,312.703000,366.040000C313.942000,366.040000,314.689000,366.787000,314.689000,367.763000C314.689000,368.817000,313.872000,369.547000,312.668000,369.547000L311.086000,369.547000L311.086000,371.437000ZM340.305000,377L340.305000,364.317000L337.651000,364.317000L337.651000,369.468000L331.938000,369.468000L331.938000,364.317000L329.284000,364.317000L329.284000,377L331.938000,377L331.938000,371.656000L337.651000,371.656000L337.651000,377L340.305000,377ZM345.286000,377L347.844000,377L347.844000,371.586000C347.844000,370.224000,348.802000,369.389000,350.200000,369.389000C350.613000,369.389000,351.210000,369.459000,351.412000,369.529000L351.412000,367.279000C351.193000,367.209000,350.762000,367.165000,350.411000,367.165000C349.180000,367.165000,348.178000,367.895000,347.923000,368.861000L347.765000,368.861000L347.765000,367.323000L345.286000,367.323000L345.286000,377ZM354.838000,370.145000C354.838000,371.630000,355.752000,372.518000,357.633000,372.931000L359.391000,373.326000C360.243000,373.520000,360.612000,373.818000,360.612000,374.311000C360.612000,374.952000,359.927000,375.392000,358.934000,375.392000C357.914000,375.392000,357.290000,374.996000,357.097000,374.328000L354.601000,374.328000C354.777000,376.156000,356.323000,377.202000,358.881000,377.202000C361.421000,377.202000,363.153000,375.954000,363.153000,374.038000C363.153000,372.597000,362.309000,371.806000,360.428000,371.393000L358.609000,370.997000C357.712000,370.795000,357.299000,370.487000,357.299000,369.995000C357.299000,369.362000,357.976000,368.932000,358.890000,368.932000C359.839000,368.932000,360.428000,369.327000,360.560000,369.969000L362.924000,369.969000C362.783000,368.141000,361.333000,367.112000,358.872000,367.112000C356.455000,367.112000,354.838000,368.334000,354.838000,370.145000Z" fill="rgb(0,213,100)" stroke="none" stroke-width="1"/><g id="ep96s6351gl3_tr" transform="translate(328.992076,337.992315) rotate(360)"><circle id="ep96s6351gl3" r="192" transform="skewX(-0) skewY(0) scale(1,1) translate(-0,-0)" fill="none" stroke="rgb(0,213,100)" stroke-width="4" stroke-opacity="0.6" stroke-dasharray="140,140"/></g><g id="ep96s6351gl4_tr" transform="translate(328.492000,338.492000) rotate(0)"><circle id="ep96s6351gl4" r="129.500000" transform="translate(0,0)" fill="none" stroke="rgb(0,213,100)" stroke-width="4" stroke-opacity="0.3" stroke-dasharray="100,100"/></g><g id="ep96s6351gl5_tr" transform="translate(330.492135,341.491830) rotate(0)"><circle id="ep96s6351gl5" r="264.500000" transform="skewX(0) skewY(0) scale(1,1) translate(0,0)" fill="none" stroke="rgb(0,213,100)" stroke-width="4" stroke-dasharray="160,160"/></g><path id="ep96s6351gl6" d="M334.992000,343.992000L330.409000,343.992000L332.242000,334.826000L324.992000,345.659000L329.576000,345.659000L327.742000,354.826000L334.992000,343.992000Z" fill="rgb(0,213,100)" stroke="none" stroke-width="1"/></svg>
