<svg id="e54nh31d1kbp1" xmlns="http://www.w3.org/2000/svg" xmlns:xlink="http://www.w3.org/1999/xlink" viewBox="0 0 338 339" shape-rendering="geometricPrecision" text-rendering="geometricPrecision"><style><![CDATA[#e54nh31d1kbp3_tr {animation: e54nh31d1kbp3_tr__tr 3000ms linear 1 normal forwards}@keyframes e54nh31d1kbp3_tr__tr { 0% {transform: translate(169px,169.420000px) rotate(0deg)} 100% {transform: translate(169px,169.420000px) rotate(330deg)} }#e54nh31d1kbp4_tr {animation: e54nh31d1kbp4_tr__tr 3000ms linear 1 normal forwards}@keyframes e54nh31d1kbp4_tr__tr { 0% {transform: translate(169.430000px,169.430000px) rotate(0deg);animation-timing-function: cubic-bezier(0.445000,0.050000,0.550000,0.950000)} 100% {transform: translate(169.430000px,169.430000px) rotate(2160deg)} }#e54nh31d1kbp5_tr {animation: e54nh31d1kbp5_tr__tr 3000ms linear 1 normal forwards}@keyframes e54nh31d1kbp5_tr__tr { 0% {transform: translate(169.430000px,169.430000px) rotate(0deg);animation-timing-function: cubic-bezier(0.445000,0.050000,0.550000,0.950000)} 100% {transform: translate(169.430000px,169.430000px) rotate(2160deg)} }#e54nh31d1kbp6_tr {animation: e54nh31d1kbp6_tr__tr 3000ms linear 1 normal forwards}@keyframes e54nh31d1kbp6_tr__tr { 0% {transform: translate(169.430000px,169.430000px) rotate(0deg);animation-timing-function: cubic-bezier(0.445000,0.050000,0.550000,0.950000)} 100% {transform: translate(169.430000px,169.430000px) rotate(2160deg)} }#e54nh31d1kbp7_tr {animation: e54nh31d1kbp7_tr__tr 3000ms linear 1 normal forwards}@keyframes e54nh31d1kbp7_tr__tr { 0% {transform: translate(169.430000px,169.430000px) rotate(0deg);animation-timing-function: cubic-bezier(0.445000,0.050000,0.550000,0.950000)} 100% {transform: translate(169.430000px,169.430000px) rotate(2160deg)} }]]></style><circle id="e54nh31d1kbp2" r="167" transform="matrix(1 0 0 1 169 169.42500000000001)" fill="none" stroke="rgb(135,135,135)" stroke-width="4" stroke-opacity="0.7" stroke-linecap="round"/><g id="e54nh31d1kbp3_tr" transform="translate(169,169.420000) rotate(0)"><path id="e54nh31d1kbp3" d="M169,92.424800L169,174.425000" transform="translate(-169,-169.420000)" fill="none" stroke="rgb(159,159,159)" stroke-width="5" stroke-opacity="0.8" stroke-linecap="round"/></g><g id="e54nh31d1kbp4_tr" transform="translate(169.430000,169.430000) rotate(0)"><path id="e54nh31d1kbp4" d="M71,250.422000L166.840000,186.425000" transform="translate(-169.430000,-169.430000)" fill="none" stroke="rgb(159,159,159)" stroke-width="5" stroke-opacity="0.2" stroke-linecap="round"/></g><g id="e54nh31d1kbp5_tr" transform="translate(169.430000,169.430000) rotate(0)"><path id="e54nh31d1kbp5" d="M65,239.143000L167.478000,186.425000" transform="translate(-169.430000,-169.430000)" fill="none" stroke="rgb(159,159,159)" stroke-width="5" stroke-opacity="0.4" stroke-linecap="round"/></g><g id="e54nh31d1kbp6_tr" transform="translate(169.430000,169.430000) rotate(0)"><path id="e54nh31d1kbp6" d="M59,226.580000L167.021000,186.425000" transform="translate(-169.430000,-169.430000)" fill="none" stroke="rgb(159,159,159)" stroke-width="5" stroke-opacity="0.6" stroke-linecap="round"/></g><g id="e54nh31d1kbp7_tr" transform="translate(169.430000,169.430000) rotate(0)"><path id="e54nh31d1kbp7" d="M54,211.140000L166.562000,186.425000" transform="translate(-169.430000,-169.430000)" fill="none" stroke="rgb(159,159,159)" stroke-width="5" stroke-opacity="0.8" stroke-linecap="round"/></g><path id="e54nh31d1kbp8" d="M85.133800,154.592000L87.594700,154.592000C87.594700,153.353000,88.403300,152.482000,89.695300,152.482000C90.934600,152.482000,91.655300,153.309000,91.655300,154.346000C91.655300,155.225000,91.312500,155.805000,89.730500,157.343000L85.283200,161.641000L85.283200,163.425000L94.432600,163.425000L94.432600,161.289000L88.860400,161.289000L88.860400,161.131000L91.497100,158.617000C93.606400,156.613000,94.256800,155.594000,94.256800,154.108000C94.256800,151.973000,92.534200,150.417000,89.844700,150.417000C87.067400,150.417000,85.133800,152.122000,85.133800,154.592000ZM99.925800,157.861000L101.534000,157.861000C102.958000,157.861000,103.837000,158.582000,103.837000,159.742000C103.837000,160.858000,102.896000,161.614000,101.552000,161.614000C100.189000,161.614000,99.275400,160.920000,99.196300,159.821000L96.656200,159.821000C96.770500,162.194000,98.721700,163.750000,101.587000,163.750000C104.452000,163.750000,106.544000,162.177000,106.544000,159.962000C106.544000,158.257000,105.472000,157.132000,103.705000,156.868000L103.705000,156.710000C105.067000,156.367000,106.034000,155.365000,106.043000,153.827000C106.052000,151.973000,104.487000,150.417000,101.675000,150.417000C98.818400,150.417000,97.016600,151.990000,96.928700,154.302000L99.380900,154.302000C99.468800,153.133000,100.260000,152.465000,101.543000,152.465000C102.782000,152.465000,103.529000,153.212000,103.529000,154.188000C103.529000,155.242000,102.712000,155.972000,101.508000,155.972000L99.925800,155.972000L99.925800,157.861000ZM124.825000,163.425000L124.825000,150.742000L122.171000,150.742000L122.171000,155.893000L116.458000,155.893000L116.458000,150.742000L113.804000,150.742000L113.804000,163.425000L116.458000,163.425000L116.458000,158.081000L122.171000,158.081000L122.171000,163.425000L124.825000,163.425000ZM127.646000,163.425000L130.204000,163.425000L130.204000,158.011000C130.204000,156.648000,131.162000,155.813000,132.560000,155.813000C132.973000,155.813000,133.570000,155.884000,133.772000,155.954000L133.772000,153.704000C133.553000,153.634000,133.122000,153.590000,132.771000,153.590000C131.540000,153.590000,130.538000,154.319000,130.283000,155.286000L130.125000,155.286000L130.125000,153.748000L127.646000,153.748000L127.646000,163.425000ZM135.038000,156.569000C135.038000,158.055000,135.952000,158.942000,137.833000,159.355000L139.591000,159.751000C140.443000,159.944000,140.812000,160.243000,140.812000,160.735000C140.812000,161.377000,140.127000,161.816000,139.134000,161.816000C138.114000,161.816000,137.490000,161.421000,137.297000,160.753000L134.801000,160.753000C134.977000,162.581000,136.523000,163.627000,139.081000,163.627000C141.621000,163.627000,143.353000,162.379000,143.353000,160.463000C143.353000,159.021000,142.509000,158.230000,140.628000,157.817000L138.809000,157.422000C137.912000,157.220000,137.499000,156.912000,137.499000,156.420000C137.499000,155.787000,138.176000,155.356000,139.090000,155.356000C140.039000,155.356000,140.628000,155.752000,140.760000,156.394000L143.124000,156.394000C142.983000,154.565000,141.533000,153.537000,139.072000,153.537000C136.655000,153.537000,135.038000,154.759000,135.038000,156.569000Z" fill="rgb(242,242,242)" stroke="none" stroke-width="1"/></svg>