<svg id="ezoqxxrlj8i1" xmlns="http://www.w3.org/2000/svg" xmlns:xlink="http://www.w3.org/1999/xlink" viewBox="0 0 112 113" shape-rendering="geometricPrecision" text-rendering="geometricPrecision"><style><![CDATA[#ezoqxxrlj8i2_ts {animation: ezoqxxrlj8i2_ts__ts 3000ms linear infinite normal forwards}@keyframes ezoqxxrlj8i2_ts__ts { 0% {transform: translate(52.994872px,54.921338px) scale(0.780000,0.780000)} 16.666667% {transform: translate(52.994872px,54.921338px) scale(0.780000,0.780000);animation-timing-function: cubic-bezier(0.445000,0.050000,0.550000,0.950000)} 33.333333% {transform: translate(52.994872px,54.921338px) scale(1,1)} 100% {transform: translate(52.994872px,54.921338px) scale(1,1)} }#ezoqxxrlj8i2 {animation: ezoqxxrlj8i2_c_o 3000ms linear infinite normal forwards}@keyframes ezoqxxrlj8i2_c_o { 0% {opacity: 0} 16.666667% {opacity: 0;animation-timing-function: cubic-bezier(0.445000,0.050000,0.550000,0.950000)} 33.333333% {opacity: 1} 100% {opacity: 1} }#ezoqxxrlj8i3_ts {animation: ezoqxxrlj8i3_ts__ts 3000ms linear infinite normal forwards}@keyframes ezoqxxrlj8i3_ts__ts { 0% {transform: translate(53.678824px,55.275715px) scale(0.680000,0.680000);animation-timing-function: cubic-bezier(0.445000,0.050000,0.550000,0.950000)} 16.666667% {transform: translate(53.678824px,55.275715px) scale(1,1)} 100% {transform: translate(53.678824px,55.275715px) scale(1,1)} }#ezoqxxrlj8i3 {animation: ezoqxxrlj8i3_c_o 3000ms linear infinite normal forwards}@keyframes ezoqxxrlj8i3_c_o { 0% {opacity: 0;animation-timing-function: cubic-bezier(0.445000,0.050000,0.550000,0.950000)} 16.666667% {opacity: 1} 100% {opacity: 1} }]]></style><g id="ezoqxxrlj8i2_ts" transform="translate(52.994872,54.921338) scale(0.780000,0.780000)"><path id="ezoqxxrlj8i2" d="M76.484800,90.999700C82.033600,86.958700,86.446100,81.554600,89.295800,75.309800C92.145400,69.064900,93.335900,62.190600,92.752100,55.351100C92.168300,48.511700,89.829900,41.938500,85.963100,36.267000C82.096200,30.595500,76.831600,26.017400,70.678200,22.975400C64.524800,19.933300,57.690600,18.530100,50.836400,18.901400C43.982100,19.272800,37.339600,21.406000,31.550800,25.095100C25.762000,28.784100,21.022800,33.904100,17.791300,39.960100C14.559800,46.016200,12.945200,52.803500,13.103700,59.666000" transform="translate(-52.994872,-54.921338)" opacity="0" fill="none" stroke="rgb(147,147,147)" stroke-width="4"/></g><g id="ezoqxxrlj8i3_ts" transform="translate(53.678824,55.275715) scale(0.680000,0.680000)"><path id="ezoqxxrlj8i3" d="M72.186100,83.659200C76.524200,80.500000,79.967500,76.266300,82.183400,71.367500C84.399200,66.468700,85.312600,61.070400,84.835200,55.694500C84.357700,50.318500,82.505700,45.146800,79.458000,40.679100C76.410400,36.211300,72.270200,32.598800,67.437600,30.190700C62.605100,27.782500,57.243700,26.660200,51.871700,26.932100C46.499600,27.204100,41.298600,28.861200,36.771400,31.743200C32.244100,34.625200,28.543800,38.634700,26.028100,43.384100C23.512300,48.133400,22.266300,53.462100,22.410300,58.854900" transform="translate(-53.678824,-55.275715)" opacity="0" fill="none" stroke="rgb(147,147,147)" stroke-width="4"/></g><path id="ezoqxxrlj8i4" d="M67.799600,74.391200C70.783100,72.218400,73.148200,69.302300,74.666000,65.924700C76.183900,62.547100,76.803200,58.822200,76.464200,55.110200C76.125200,51.398300,74.839300,47.824700,72.730800,44.734800C70.622300,41.645000,67.762500,39.143600,64.427800,37.472200C61.093200,35.800800,57.396500,35.016000,53.695000,35.193800C49.993500,35.371500,46.412500,36.505800,43.298100,38.486800C40.183700,40.467900,37.641200,43.228800,35.916400,46.502700C34.191600,49.776600,33.342900,53.452700,33.452200,57.175700" fill="none" stroke="rgb(147,147,147)" stroke-width="4"/></svg>
