<svg id="eckpfry3xztp1" xmlns="http://www.w3.org/2000/svg" xmlns:xlink="http://www.w3.org/1999/xlink" viewBox="0 0 361 610" shape-rendering="geometricPrecision" text-rendering="geometricPrecision"><style><![CDATA[#eckpfry3xztp2 {animation: eckpfry3xztp2_c_o 3000ms linear infinite normal forwards}@keyframes eckpfry3xztp2_c_o { 0% {opacity: 0} 16.666667% {opacity: 1} 100% {opacity: 1} }#eckpfry3xztp3 {animation: eckpfry3xztp3_c_o 3000ms linear infinite normal forwards}@keyframes eckpfry3xztp3_c_o { 0% {opacity: 0} 16.666667% {opacity: 0} 33.333333% {opacity: 1} 100% {opacity: 1} }]]></style><path id="eckpfry3xztp2" d="M288,305C288,388.994000,271.810000,464.938000,245.724000,519.809000C219.567000,574.830000,183.822000,608,145,608C106.178000,608,70.433400,574.830000,44.275800,519.809000C18.189600,464.938000,2,388.994000,2,305C2,221.006000,18.189600,145.062000,44.275800,90.191100C70.433400,35.170000,106.178000,2,145,2C183.822000,2,219.567000,35.170000,245.724000,90.191100C271.810000,145.062000,288,221.006000,288,305Z" opacity="0" fill="none" stroke="rgb(255,255,255)" stroke-width="4" stroke-opacity="0.6"/><path id="eckpfry3xztp3" d="M359,292.172000C359,354.675000,346.952000,411.162000,327.561000,451.949000C308.099000,492.886000,281.604000,517.345000,253,517.345000C224.396000,517.345000,197.901000,492.886000,178.439000,451.949000C159.048000,411.162000,147,354.675000,147,292.172000C147,229.670000,159.048000,173.183000,178.439000,132.396000C197.901000,91.458800,224.396000,67,253,67C281.604000,67,308.099000,91.458800,327.561000,132.396000C346.952000,173.183000,359,229.670000,359,292.172000Z" opacity="0" fill="none" stroke="rgb(255,255,255)" stroke-width="4" stroke-opacity="0.9"/></svg>
