<svg id="esawz5vjyjyn1" xmlns="http://www.w3.org/2000/svg" xmlns:xlink="http://www.w3.org/1999/xlink" viewBox="0 0 433 433" shape-rendering="geometricPrecision" text-rendering="geometricPrecision"><style><![CDATA[#esawz5vjyjyn4_to {animation: esawz5vjyjyn4_to__to 3000ms linear 1 normal forwards}@keyframes esawz5vjyjyn4_to__to { 0% {transform: translate(0px,0px)} 16.666667% {transform: translate(15px,15px)} 100% {transform: translate(15px,15px)} }]]></style><defs><clipPath id="esawz5vjyjyn2"><rect id="esawz5vjyjyn3" width="433" height="433" rx="0" ry="0" fill="rgb(255,255,255)" stroke="none" stroke-width="1"/></clipPath></defs><g id="esawz5vjyjyn4_to" transform="translate(0,0)"><g id="esawz5vjyjyn4" transform="translate(0,0)" clip-path="url(#esawz5vjyjyn2)"><path id="esawz5vjyjyn5" d="M435.760000,403.858000L403.728000,435.890000L409.613000,441.774000L441.645000,409.742000L435.760000,403.858000Z" fill="rgb(63,65,68)" fill-opacity="0.8" stroke="none" stroke-width="1"/><path id="esawz5vjyjyn6" d="M435.761000,374.328000L374.205000,435.884000L380.090000,441.768000L441.645000,380.212000L435.761000,374.328000Z" fill="rgb(63,65,68)" fill-opacity="0.8" stroke="none" stroke-width="1"/><path id="esawz5vjyjyn7" d="M435.760000,344.812000L344.681000,435.891000L350.565000,441.775000L441.644000,350.696000L435.760000,344.812000Z" fill="rgb(63,65,68)" fill-opacity="0.8" stroke="none" stroke-width="1"/><path id="esawz5vjyjyn8" d="M435.759000,315.288000L315.156000,435.891000L321.041000,441.775000L441.643000,321.173000L435.759000,315.288000Z" fill="rgb(63,65,68)" fill-opacity="0.8" stroke="none" stroke-width="1"/><path id="esawz5vjyjyn9" d="M435.760000,285.756000L285.634000,435.882000L291.518000,441.766000L441.644000,291.640000L435.760000,285.756000Z" fill="rgb(63,65,68)" fill-opacity="0.8" stroke="none" stroke-width="1"/><path id="esawz5vjyjyn10" d="M435.760000,256.241000L256.111000,435.890000L261.995000,441.774000L441.645000,262.125000L435.760000,256.241000Z" fill="rgb(63,65,68)" fill-opacity="0.8" stroke="none" stroke-width="1"/><path id="esawz5vjyjyn11" d="M435.759000,226.711000L226.587000,435.884000L232.471000,441.768000L441.644000,232.595000L435.759000,226.711000Z" fill="rgb(63,65,68)" fill-opacity="0.8" stroke="none" stroke-width="1"/><path id="esawz5vjyjyn12" d="M435.760000,197.192000L197.064000,435.888000L202.948000,441.772000L441.644000,203.076000L435.760000,197.192000Z" fill="rgb(63,65,68)" fill-opacity="0.8" stroke="none" stroke-width="1"/><path id="esawz5vjyjyn13" d="M435.761000,167.664000L167.541000,435.884000L173.425000,441.768000L441.645000,173.549000L435.761000,167.664000Z" fill="rgb(63,65,68)" fill-opacity="0.8" stroke="none" stroke-width="1"/><path id="esawz5vjyjyn14" d="M435.760000,138.146000L138.016000,435.889000L143.901000,441.774000L441.644000,144.030000L435.760000,138.146000Z" fill="rgb(63,65,68)" fill-opacity="0.8" stroke="none" stroke-width="1"/><path id="esawz5vjyjyn15" d="M435.761000,108.616000L108.494000,435.883000L114.378000,441.767000L441.645000,114.500000L435.761000,108.616000Z" fill="rgb(63,65,68)" fill-opacity="0.8" stroke="none" stroke-width="1"/><path id="esawz5vjyjyn16" d="M435.761000,79.098900L78.970800,435.889000L84.855100,441.774000L441.645000,84.983200L435.761000,79.098900Z" fill="rgb(63,65,68)" fill-opacity="0.8" stroke="none" stroke-width="1"/><path id="esawz5vjyjyn17" d="M435.760000,49.575200L49.446400,435.889000L55.330700,441.773000L441.645000,55.459500L435.760000,49.575200Z" fill="rgb(63,65,68)" fill-opacity="0.8" stroke="none" stroke-width="1"/><path id="esawz5vjyjyn18" d="M435.759000,20.047000L19.921900,435.884000L25.806200,441.769000L441.643000,25.931300L435.759000,20.047000Z" fill="rgb(63,65,68)" fill-opacity="0.8" stroke="none" stroke-width="1"/><path id="esawz5vjyjyn19" d="M435.762000,-9.472190L-9.599370,435.889000L-3.715070,441.773000L441.646000,-3.587900L435.762000,-9.472190Z" fill="rgb(63,65,68)" fill-opacity="0.8" stroke="none" stroke-width="1"/><path id="esawz5vjyjyn20" d="M406.237000,-9.473310L-9.600340,406.364000L-3.716050,412.248000L412.121000,-3.589020L406.237000,-9.473310Z" fill="rgb(63,65,68)" fill-opacity="0.8" stroke="none" stroke-width="1"/><path id="esawz5vjyjyn21" d="M376.714000,-9.474430L-9.599490,376.839000L-3.715210,382.724000L382.599000,-3.590150L376.714000,-9.474430Z" fill="rgb(63,65,68)" fill-opacity="0.8" stroke="none" stroke-width="1"/><path id="esawz5vjyjyn22" d="M347.190000,-9.471510L-9.600460,347.319000L-3.716170,353.203000L353.074000,-3.587220L347.190000,-9.471510Z" fill="rgb(63,65,68)" fill-opacity="0.8" stroke="none" stroke-width="1"/><path id="esawz5vjyjyn23" d="M317.667000,-9.473160L-9.599850,317.794000L-3.715560,323.678000L323.551000,-3.588870L317.667000,-9.473160Z" fill="rgb(63,65,68)" fill-opacity="0.8" stroke="none" stroke-width="1"/><path id="esawz5vjyjyn24" d="M288.142000,-9.470950L-9.600950,288.272000L-3.716670,294.157000L294.027000,-3.586670L288.142000,-9.470950Z" fill="rgb(63,65,68)" fill-opacity="0.8" stroke="none" stroke-width="1"/><path id="esawz5vjyjyn25" d="M258.621000,-9.473820L-9.598750,258.746000L-3.714470,264.630000L264.505000,-3.589530L258.621000,-9.473820Z" fill="rgb(63,65,68)" fill-opacity="0.8" stroke="none" stroke-width="1"/><path id="esawz5vjyjyn26" d="M229.097000,-9.471580L-9.599370,229.225000L-3.715070,235.109000L234.981000,-3.587280L229.097000,-9.471580Z" fill="rgb(63,65,68)" fill-opacity="0.8" stroke="none" stroke-width="1"/><path id="esawz5vjyjyn27" d="M199.572000,-9.474140L-9.600460,199.699000L-3.716180,205.583000L205.457000,-3.589860L199.572000,-9.474140Z" fill="rgb(63,65,68)" fill-opacity="0.8" stroke="none" stroke-width="1"/><path id="esawz5vjyjyn28" d="M170.050000,-9.475540L-9.599730,170.174000L-3.715450,176.058000L175.934000,-3.591250L170.050000,-9.475540Z" fill="rgb(63,65,68)" fill-opacity="0.8" stroke="none" stroke-width="1"/><path id="esawz5vjyjyn29" d="M140.527000,-9.474500L-9.599240,140.651000L-3.714960,146.536000L146.411000,-3.590210L140.527000,-9.474500Z" fill="rgb(63,65,68)" fill-opacity="0.8" stroke="none" stroke-width="1"/><path id="esawz5vjyjyn30" d="M111.002000,-9.474650L-9.600100,111.128000L-3.715810,117.012000L116.887000,-3.590360L111.002000,-9.474650Z" fill="rgb(63,65,68)" fill-opacity="0.8" stroke="none" stroke-width="1"/><path id="esawz5vjyjyn31" d="M81.478100,-9.473770L-9.599240,81.603500L-3.714950,87.487800L87.362300,-3.589480L81.478100,-9.473770Z" fill="rgb(63,65,68)" fill-opacity="0.8" stroke="none" stroke-width="1"/><path id="esawz5vjyjyn32" d="M51.956600,-9.474820L-9.598750,52.080600L-3.714470,57.964900L57.840900,-3.590530L51.956600,-9.474820Z" fill="rgb(63,65,68)" fill-opacity="0.8" stroke="none" stroke-width="1"/><path id="esawz5vjyjyn33" d="M22.432300,-9.474280L-9.599610,22.557600L-3.715320,28.441900L28.316600,-3.589990L22.432300,-9.474280Z" fill="rgb(63,65,68)" fill-opacity="0.8" stroke="none" stroke-width="1"/></g></g></svg>